<mxfile host="app.diagrams.net" modified="2022-10-28T15:35:45.459Z" agent="5.0 (Windows NT 10.0; Win64; x64) AppleWebKit/537.36 (KHTML, like Gecko) Chrome/106.0.0.0 Safari/537.36" etag="eiv6rw-MXEuipbcZ7QMm" version="20.5.1" type="github">
  <diagram name="Page-1" id="0783ab3e-0a74-02c8-0abd-f7b4e66b4bec">
    <mxGraphModel dx="1597" dy="829" grid="1" gridSize="10" guides="1" tooltips="1" connect="1" arrows="1" fold="1" page="1" pageScale="1" pageWidth="850" pageHeight="1100" background="none" math="0" shadow="0">
      <root>
        <mxCell id="0" />
        <mxCell id="1" parent="0" />
        <mxCell id="ghwwSmaMZXJ6ce2ccZRn-12" value="&lt;font style=&quot;font-size: 16px;&quot;&gt;Aplicación de cartas de restaurantes/cafeterías&lt;/font&gt;" style="html=1;verticalAlign=top;fontSize=14;" vertex="1" parent="1">
          <mxGeometry x="160" y="310" width="670" height="780" as="geometry" />
        </mxCell>
        <mxCell id="ghwwSmaMZXJ6ce2ccZRn-16" style="edgeStyle=none;rounded=0;orthogonalLoop=1;jettySize=auto;html=1;fontSize=15;endArrow=none;endFill=0;" edge="1" parent="1" source="ghwwSmaMZXJ6ce2ccZRn-1" target="ghwwSmaMZXJ6ce2ccZRn-4">
          <mxGeometry relative="1" as="geometry" />
        </mxCell>
        <mxCell id="ghwwSmaMZXJ6ce2ccZRn-24" style="edgeStyle=none;rounded=0;orthogonalLoop=1;jettySize=auto;html=1;entryX=0;entryY=0.5;entryDx=0;entryDy=0;fontSize=15;endArrow=none;endFill=0;" edge="1" parent="1" source="ghwwSmaMZXJ6ce2ccZRn-1" target="ghwwSmaMZXJ6ce2ccZRn-7">
          <mxGeometry relative="1" as="geometry" />
        </mxCell>
        <mxCell id="ghwwSmaMZXJ6ce2ccZRn-25" style="edgeStyle=none;rounded=0;orthogonalLoop=1;jettySize=auto;html=1;fontSize=15;endArrow=none;endFill=0;" edge="1" parent="1" source="ghwwSmaMZXJ6ce2ccZRn-1" target="ghwwSmaMZXJ6ce2ccZRn-10">
          <mxGeometry relative="1" as="geometry" />
        </mxCell>
        <mxCell id="ghwwSmaMZXJ6ce2ccZRn-26" style="edgeStyle=none;rounded=0;orthogonalLoop=1;jettySize=auto;html=1;fontSize=15;endArrow=none;endFill=0;" edge="1" parent="1" source="ghwwSmaMZXJ6ce2ccZRn-1" target="ghwwSmaMZXJ6ce2ccZRn-20">
          <mxGeometry relative="1" as="geometry" />
        </mxCell>
        <mxCell id="ghwwSmaMZXJ6ce2ccZRn-27" style="edgeStyle=none;rounded=0;orthogonalLoop=1;jettySize=auto;html=1;fontSize=15;endArrow=none;endFill=0;" edge="1" parent="1" source="ghwwSmaMZXJ6ce2ccZRn-1" target="ghwwSmaMZXJ6ce2ccZRn-22">
          <mxGeometry relative="1" as="geometry" />
        </mxCell>
        <mxCell id="ghwwSmaMZXJ6ce2ccZRn-28" style="edgeStyle=none;rounded=0;orthogonalLoop=1;jettySize=auto;html=1;entryX=0;entryY=0.5;entryDx=0;entryDy=0;fontSize=15;endArrow=none;endFill=0;" edge="1" parent="1" source="ghwwSmaMZXJ6ce2ccZRn-1" target="ghwwSmaMZXJ6ce2ccZRn-21">
          <mxGeometry relative="1" as="geometry" />
        </mxCell>
        <mxCell id="ghwwSmaMZXJ6ce2ccZRn-48" style="edgeStyle=none;rounded=0;orthogonalLoop=1;jettySize=auto;html=1;entryX=0;entryY=0.5;entryDx=0;entryDy=0;fontSize=12;endArrow=none;endFill=0;" edge="1" parent="1" source="ghwwSmaMZXJ6ce2ccZRn-1" target="ghwwSmaMZXJ6ce2ccZRn-44">
          <mxGeometry relative="1" as="geometry" />
        </mxCell>
        <mxCell id="ghwwSmaMZXJ6ce2ccZRn-49" style="edgeStyle=none;rounded=0;orthogonalLoop=1;jettySize=auto;html=1;entryX=0;entryY=0;entryDx=0;entryDy=0;fontSize=12;endArrow=none;endFill=0;" edge="1" parent="1" source="ghwwSmaMZXJ6ce2ccZRn-1" target="ghwwSmaMZXJ6ce2ccZRn-45">
          <mxGeometry relative="1" as="geometry" />
        </mxCell>
        <mxCell id="ghwwSmaMZXJ6ce2ccZRn-50" style="edgeStyle=none;rounded=0;orthogonalLoop=1;jettySize=auto;html=1;fontSize=12;endArrow=none;endFill=0;" edge="1" parent="1" source="ghwwSmaMZXJ6ce2ccZRn-1" target="ghwwSmaMZXJ6ce2ccZRn-46">
          <mxGeometry relative="1" as="geometry" />
        </mxCell>
        <mxCell id="ghwwSmaMZXJ6ce2ccZRn-1" value="&lt;font style=&quot;font-size: 15px;&quot;&gt;Gestor hostelero&lt;/font&gt;" style="shape=umlActor;verticalLabelPosition=bottom;verticalAlign=top;html=1;" vertex="1" parent="1">
          <mxGeometry x="70" y="590" width="50" height="90" as="geometry" />
        </mxCell>
        <mxCell id="ghwwSmaMZXJ6ce2ccZRn-17" style="edgeStyle=none;rounded=0;orthogonalLoop=1;jettySize=auto;html=1;fontSize=15;endArrow=none;endFill=0;" edge="1" parent="1" source="ghwwSmaMZXJ6ce2ccZRn-2" target="ghwwSmaMZXJ6ce2ccZRn-8">
          <mxGeometry relative="1" as="geometry" />
        </mxCell>
        <mxCell id="ghwwSmaMZXJ6ce2ccZRn-18" style="edgeStyle=none;rounded=0;orthogonalLoop=1;jettySize=auto;html=1;entryX=1;entryY=0.5;entryDx=0;entryDy=0;fontSize=15;endArrow=none;endFill=0;" edge="1" parent="1" source="ghwwSmaMZXJ6ce2ccZRn-2" target="ghwwSmaMZXJ6ce2ccZRn-9">
          <mxGeometry relative="1" as="geometry" />
        </mxCell>
        <mxCell id="ghwwSmaMZXJ6ce2ccZRn-19" style="edgeStyle=none;rounded=0;orthogonalLoop=1;jettySize=auto;html=1;fontSize=15;endArrow=none;endFill=0;" edge="1" parent="1" source="ghwwSmaMZXJ6ce2ccZRn-2" target="ghwwSmaMZXJ6ce2ccZRn-11">
          <mxGeometry relative="1" as="geometry" />
        </mxCell>
        <mxCell id="ghwwSmaMZXJ6ce2ccZRn-2" value="&lt;font style=&quot;font-size: 15px;&quot;&gt;Consumidor&lt;/font&gt;" style="shape=umlActor;verticalLabelPosition=bottom;verticalAlign=top;html=1;" vertex="1" parent="1">
          <mxGeometry x="920" y="590" width="50" height="90" as="geometry" />
        </mxCell>
        <mxCell id="ghwwSmaMZXJ6ce2ccZRn-14" style="rounded=0;orthogonalLoop=1;jettySize=auto;html=1;entryX=0;entryY=0.5;entryDx=0;entryDy=0;fontSize=15;endArrow=none;endFill=0;" edge="1" parent="1" source="ghwwSmaMZXJ6ce2ccZRn-4" target="ghwwSmaMZXJ6ce2ccZRn-6">
          <mxGeometry relative="1" as="geometry" />
        </mxCell>
        <mxCell id="ghwwSmaMZXJ6ce2ccZRn-15" style="rounded=0;orthogonalLoop=1;jettySize=auto;html=1;entryX=0;entryY=0.5;entryDx=0;entryDy=0;fontSize=15;endArrow=none;endFill=0;" edge="1" parent="1" source="ghwwSmaMZXJ6ce2ccZRn-4" target="ghwwSmaMZXJ6ce2ccZRn-5">
          <mxGeometry relative="1" as="geometry" />
        </mxCell>
        <mxCell id="ghwwSmaMZXJ6ce2ccZRn-4" value="Registro usuario" style="ellipse;whiteSpace=wrap;html=1;fontSize=15;aspect=fixed;" vertex="1" parent="1">
          <mxGeometry x="180" y="362.5" width="120" height="60" as="geometry" />
        </mxCell>
        <mxCell id="ghwwSmaMZXJ6ce2ccZRn-5" value="Baja" style="ellipse;whiteSpace=wrap;html=1;fontSize=15;aspect=fixed;" vertex="1" parent="1">
          <mxGeometry x="347.5" y="400" width="90" height="45" as="geometry" />
        </mxCell>
        <mxCell id="ghwwSmaMZXJ6ce2ccZRn-6" value="Alta" style="ellipse;whiteSpace=wrap;html=1;fontSize=15;aspect=fixed;" vertex="1" parent="1">
          <mxGeometry x="347.5" y="350" width="90" height="45" as="geometry" />
        </mxCell>
        <mxCell id="ghwwSmaMZXJ6ce2ccZRn-7" value="Añadir restaurante" style="ellipse;whiteSpace=wrap;html=1;fontSize=15;" vertex="1" parent="1">
          <mxGeometry x="228" y="465" width="140" height="70" as="geometry" />
        </mxCell>
        <mxCell id="ghwwSmaMZXJ6ce2ccZRn-37" style="edgeStyle=none;rounded=0;orthogonalLoop=1;jettySize=auto;html=1;fontSize=15;endArrow=open;endFill=0;verticalAlign=bottom;dashed=1;endSize=8;startArrow=none;fontColor=#B3B3B3;strokeColor=#B3B3B3;" edge="1" parent="1" source="ghwwSmaMZXJ6ce2ccZRn-40" target="ghwwSmaMZXJ6ce2ccZRn-7">
          <mxGeometry relative="1" as="geometry" />
        </mxCell>
        <mxCell id="ghwwSmaMZXJ6ce2ccZRn-8" value="Buscar establecimiento" style="ellipse;whiteSpace=wrap;html=1;fontSize=15;" vertex="1" parent="1">
          <mxGeometry x="650" y="410" width="140" height="70" as="geometry" />
        </mxCell>
        <mxCell id="ghwwSmaMZXJ6ce2ccZRn-30" style="edgeStyle=none;rounded=0;orthogonalLoop=1;jettySize=auto;html=1;entryX=1;entryY=0.5;entryDx=0;entryDy=0;fontSize=15;endArrow=open;endFill=0;verticalAlign=bottom;dashed=1;endSize=8;startArrow=none;strokeColor=#B3B3B3;" edge="1" parent="1" source="ghwwSmaMZXJ6ce2ccZRn-31" target="ghwwSmaMZXJ6ce2ccZRn-20">
          <mxGeometry relative="1" as="geometry" />
        </mxCell>
        <mxCell id="ghwwSmaMZXJ6ce2ccZRn-9" value="&lt;font style=&quot;font-size: 15px;&quot;&gt;Consultar carta&lt;/font&gt;" style="ellipse;whiteSpace=wrap;html=1;" vertex="1" parent="1">
          <mxGeometry x="650" y="590" width="140" height="70" as="geometry" />
        </mxCell>
        <mxCell id="ghwwSmaMZXJ6ce2ccZRn-10" value="Borrar restaurante" style="ellipse;whiteSpace=wrap;html=1;fontSize=15;" vertex="1" parent="1">
          <mxGeometry x="160" y="1010" width="140" height="70" as="geometry" />
        </mxCell>
        <mxCell id="ghwwSmaMZXJ6ce2ccZRn-65" style="edgeStyle=orthogonalEdgeStyle;rounded=0;orthogonalLoop=1;jettySize=auto;html=1;entryX=1;entryY=1;entryDx=0;entryDy=0;fontSize=15;endArrow=open;endFill=0;verticalAlign=bottom;dashed=1;endSize=8;curved=1;strokeColor=#B3B3B3;" edge="1" parent="1" source="ghwwSmaMZXJ6ce2ccZRn-11" target="ghwwSmaMZXJ6ce2ccZRn-44">
          <mxGeometry relative="1" as="geometry">
            <Array as="points">
              <mxPoint x="740" y="889" />
            </Array>
          </mxGeometry>
        </mxCell>
        <mxCell id="ghwwSmaMZXJ6ce2ccZRn-11" value="Buscar producto" style="ellipse;whiteSpace=wrap;html=1;fontSize=15;" vertex="1" parent="1">
          <mxGeometry x="670" y="730" width="140" height="70" as="geometry" />
        </mxCell>
        <mxCell id="ghwwSmaMZXJ6ce2ccZRn-13" value="&amp;lt;&amp;lt;include&amp;gt;&amp;gt;" style="html=1;verticalAlign=bottom;endArrow=open;dashed=1;endSize=8;rounded=0;fontSize=12;strokeColor=#B3B3B3;fontColor=#B3B3B3;" edge="1" parent="1" source="ghwwSmaMZXJ6ce2ccZRn-9" target="ghwwSmaMZXJ6ce2ccZRn-8">
          <mxGeometry relative="1" as="geometry">
            <mxPoint x="480" y="650" as="sourcePoint" />
            <mxPoint x="400" y="650" as="targetPoint" />
          </mxGeometry>
        </mxCell>
        <mxCell id="ghwwSmaMZXJ6ce2ccZRn-20" value="Añadir carta" style="ellipse;whiteSpace=wrap;html=1;fontSize=15;" vertex="1" parent="1">
          <mxGeometry x="400" y="600" width="140" height="70" as="geometry" />
        </mxCell>
        <mxCell id="ghwwSmaMZXJ6ce2ccZRn-33" style="edgeStyle=none;rounded=0;orthogonalLoop=1;jettySize=auto;html=1;fontSize=15;endArrow=open;endFill=0;verticalAlign=bottom;dashed=1;endSize=8;startArrow=none;strokeColor=#B3B3B3;" edge="1" parent="1" source="ghwwSmaMZXJ6ce2ccZRn-35" target="ghwwSmaMZXJ6ce2ccZRn-20">
          <mxGeometry relative="1" as="geometry" />
        </mxCell>
        <mxCell id="ghwwSmaMZXJ6ce2ccZRn-21" value="Borrar carta" style="ellipse;whiteSpace=wrap;html=1;fontSize=15;" vertex="1" parent="1">
          <mxGeometry x="460" y="780" width="140" height="70" as="geometry" />
        </mxCell>
        <mxCell id="ghwwSmaMZXJ6ce2ccZRn-32" style="edgeStyle=none;rounded=0;orthogonalLoop=1;jettySize=auto;html=1;fontSize=15;endArrow=open;endFill=0;verticalAlign=bottom;dashed=1;endSize=8;startArrow=none;strokeColor=#B3B3B3;" edge="1" parent="1" source="ghwwSmaMZXJ6ce2ccZRn-36" target="ghwwSmaMZXJ6ce2ccZRn-20">
          <mxGeometry relative="1" as="geometry" />
        </mxCell>
        <mxCell id="ghwwSmaMZXJ6ce2ccZRn-29" value="&amp;lt;&amp;lt;include&amp;gt;&amp;gt;" style="html=1;verticalAlign=bottom;endArrow=open;dashed=1;endSize=8;rounded=0;fontSize=12;exitX=0.5;exitY=0;exitDx=0;exitDy=0;entryX=1;entryY=1;entryDx=0;entryDy=0;fontColor=#B3B3B3;strokeColor=#B3B3B3;" edge="1" parent="1" source="ghwwSmaMZXJ6ce2ccZRn-20" target="ghwwSmaMZXJ6ce2ccZRn-7">
          <mxGeometry x="-0.1618" y="-22" relative="1" as="geometry">
            <mxPoint x="480" y="650" as="sourcePoint" />
            <mxPoint x="400" y="650" as="targetPoint" />
            <mxPoint as="offset" />
          </mxGeometry>
        </mxCell>
        <mxCell id="ghwwSmaMZXJ6ce2ccZRn-31" value="&lt;span style=&quot;font-family: Helvetica; font-size: 12px; font-style: normal; font-variant-ligatures: normal; font-variant-caps: normal; font-weight: 400; letter-spacing: normal; orphans: 2; text-align: center; text-indent: 0px; text-transform: none; widows: 2; word-spacing: 0px; -webkit-text-stroke-width: 0px; background-color: rgb(255, 255, 255); text-decoration-thickness: initial; text-decoration-style: initial; text-decoration-color: initial; float: none; display: inline !important;&quot;&gt;&amp;lt;&amp;lt;include&amp;gt;&amp;gt;&lt;/span&gt;" style="text;whiteSpace=wrap;html=1;fontSize=12;fontColor=#B3B3B3;" vertex="1" parent="1">
          <mxGeometry x="570" y="620" width="70" height="30" as="geometry" />
        </mxCell>
        <mxCell id="ghwwSmaMZXJ6ce2ccZRn-41" value="" style="edgeStyle=none;rounded=0;orthogonalLoop=1;jettySize=auto;html=1;entryX=1;entryY=0.5;entryDx=0;entryDy=0;fontSize=15;endArrow=none;endFill=0;verticalAlign=bottom;dashed=1;endSize=8;strokeColor=#B3B3B3;" edge="1" parent="1" source="ghwwSmaMZXJ6ce2ccZRn-9" target="ghwwSmaMZXJ6ce2ccZRn-31">
          <mxGeometry relative="1" as="geometry">
            <mxPoint x="650.3473966852987" y="628.4826301657351" as="sourcePoint" />
            <mxPoint x="519.9999999999977" y="635.0000000000002" as="targetPoint" />
          </mxGeometry>
        </mxCell>
        <mxCell id="ghwwSmaMZXJ6ce2ccZRn-36" value="&lt;span style=&quot;font-family: Helvetica; font-size: 12px; font-style: normal; font-variant-ligatures: normal; font-variant-caps: normal; font-weight: 400; letter-spacing: normal; orphans: 2; text-align: center; text-indent: 0px; text-transform: none; widows: 2; word-spacing: 0px; -webkit-text-stroke-width: 0px; background-color: rgb(255, 255, 255); text-decoration-thickness: initial; text-decoration-style: initial; text-decoration-color: initial; float: none; display: inline !important;&quot;&gt;&amp;lt;&amp;lt;include&amp;gt;&amp;gt;&lt;/span&gt;" style="text;whiteSpace=wrap;html=1;fontSize=12;rotation=-45;fontColor=#B3B3B3;" vertex="1" parent="1">
          <mxGeometry x="325.88" y="642.13" width="70" height="17.5" as="geometry" />
        </mxCell>
        <mxCell id="ghwwSmaMZXJ6ce2ccZRn-42" value="" style="edgeStyle=none;rounded=0;orthogonalLoop=1;jettySize=auto;html=1;fontSize=15;endArrow=none;endFill=0;verticalAlign=bottom;dashed=1;endSize=8;strokeColor=#B3B3B3;" edge="1" parent="1" source="ghwwSmaMZXJ6ce2ccZRn-22" target="ghwwSmaMZXJ6ce2ccZRn-36">
          <mxGeometry relative="1" as="geometry">
            <mxPoint x="359.6570176020916" y="716.1585326530246" as="sourcePoint" />
            <mxPoint x="430.56642227509906" y="663.9179569982609" as="targetPoint" />
          </mxGeometry>
        </mxCell>
        <mxCell id="ghwwSmaMZXJ6ce2ccZRn-35" value="&lt;span style=&quot;font-family: Helvetica; font-size: 12px; font-style: normal; font-variant-ligatures: normal; font-variant-caps: normal; font-weight: 400; letter-spacing: normal; orphans: 2; text-align: center; text-indent: 0px; text-transform: none; widows: 2; word-spacing: 0px; -webkit-text-stroke-width: 0px; background-color: rgb(255, 255, 255); text-decoration-thickness: initial; text-decoration-style: initial; text-decoration-color: initial; float: none; display: inline !important;&quot;&gt;&amp;lt;&amp;lt;include&amp;gt;&amp;gt;&lt;/span&gt;" style="text;whiteSpace=wrap;html=1;fontSize=12;fontColor=#B3B3B3;" vertex="1" parent="1">
          <mxGeometry x="467.5" y="720" width="65" height="30" as="geometry" />
        </mxCell>
        <mxCell id="ghwwSmaMZXJ6ce2ccZRn-43" value="" style="edgeStyle=none;rounded=0;orthogonalLoop=1;jettySize=auto;html=1;fontSize=15;endArrow=none;endFill=0;verticalAlign=bottom;dashed=1;endSize=8;strokeColor=#B3B3B3;" edge="1" parent="1" source="ghwwSmaMZXJ6ce2ccZRn-21" target="ghwwSmaMZXJ6ce2ccZRn-35">
          <mxGeometry relative="1" as="geometry">
            <mxPoint x="461.3312809143115" y="840.0063302523856" as="sourcePoint" />
            <mxPoint x="468.5419830422602" y="669.9924069857564" as="targetPoint" />
          </mxGeometry>
        </mxCell>
        <mxCell id="ghwwSmaMZXJ6ce2ccZRn-53" style="edgeStyle=none;rounded=0;orthogonalLoop=1;jettySize=auto;html=1;fontSize=15;endArrow=open;endFill=0;verticalAlign=bottom;dashed=1;endSize=8;startArrow=none;strokeColor=#B3B3B3;" edge="1" parent="1" source="ghwwSmaMZXJ6ce2ccZRn-58" target="ghwwSmaMZXJ6ce2ccZRn-20">
          <mxGeometry relative="1" as="geometry" />
        </mxCell>
        <mxCell id="ghwwSmaMZXJ6ce2ccZRn-44" value="Añadir producto" style="ellipse;whiteSpace=wrap;html=1;fontSize=15;aspect=fixed;" vertex="1" parent="1">
          <mxGeometry x="317.5" y="840" width="115" height="57.5" as="geometry" />
        </mxCell>
        <mxCell id="ghwwSmaMZXJ6ce2ccZRn-54" style="edgeStyle=none;rounded=0;orthogonalLoop=1;jettySize=auto;html=1;entryX=0.5;entryY=1;entryDx=0;entryDy=0;fontSize=15;endArrow=open;endFill=0;verticalAlign=bottom;dashed=1;endSize=8;strokeColor=#B3B3B3;" edge="1" parent="1" source="ghwwSmaMZXJ6ce2ccZRn-45" target="ghwwSmaMZXJ6ce2ccZRn-44">
          <mxGeometry relative="1" as="geometry" />
        </mxCell>
        <mxCell id="ghwwSmaMZXJ6ce2ccZRn-45" value="Modificar producto" style="ellipse;whiteSpace=wrap;html=1;fontSize=15;aspect=fixed;" vertex="1" parent="1">
          <mxGeometry x="260" y="932.5" width="115" height="57.5" as="geometry" />
        </mxCell>
        <mxCell id="ghwwSmaMZXJ6ce2ccZRn-57" style="edgeStyle=none;rounded=0;orthogonalLoop=1;jettySize=auto;html=1;fontSize=15;endArrow=open;endFill=0;verticalAlign=bottom;dashed=1;endSize=8;strokeColor=#B3B3B3;" edge="1" parent="1" source="ghwwSmaMZXJ6ce2ccZRn-46" target="ghwwSmaMZXJ6ce2ccZRn-44">
          <mxGeometry relative="1" as="geometry" />
        </mxCell>
        <mxCell id="ghwwSmaMZXJ6ce2ccZRn-40" value="&lt;span style=&quot;font-family: Helvetica; font-size: 12px; font-style: normal; font-variant-ligatures: normal; font-variant-caps: normal; font-weight: 400; letter-spacing: normal; orphans: 2; text-align: center; text-indent: 0px; text-transform: none; widows: 2; word-spacing: 0px; -webkit-text-stroke-width: 0px; background-color: rgb(255, 255, 255); text-decoration-thickness: initial; text-decoration-style: initial; text-decoration-color: initial; float: none; display: inline !important;&quot;&gt;&amp;lt;&amp;lt;include&amp;gt;&amp;gt;&lt;/span&gt;" style="text;whiteSpace=wrap;html=1;fontSize=12;rotation=0;fontColor=#B3B3B3;" vertex="1" parent="1">
          <mxGeometry x="460" y="455" width="80" height="25" as="geometry" />
        </mxCell>
        <mxCell id="ghwwSmaMZXJ6ce2ccZRn-47" value="" style="edgeStyle=none;rounded=0;orthogonalLoop=1;jettySize=auto;html=1;fontSize=15;endArrow=none;endFill=0;verticalAlign=bottom;dashed=1;endSize=8;fontColor=#B3B3B3;strokeColor=#B3B3B3;" edge="1" parent="1" source="ghwwSmaMZXJ6ce2ccZRn-8" target="ghwwSmaMZXJ6ce2ccZRn-40">
          <mxGeometry relative="1" as="geometry">
            <mxPoint x="652.2172612961313" y="453.739283920939" as="sourcePoint" />
            <mxPoint x="365.7710310988707" y="491.23804611122796" as="targetPoint" />
          </mxGeometry>
        </mxCell>
        <mxCell id="ghwwSmaMZXJ6ce2ccZRn-56" value="&lt;span style=&quot;font-family: Helvetica; font-size: 12px; font-style: normal; font-variant-ligatures: normal; font-variant-caps: normal; font-weight: 400; letter-spacing: normal; orphans: 2; text-align: center; text-indent: 0px; text-transform: none; widows: 2; word-spacing: 0px; -webkit-text-stroke-width: 0px; background-color: rgb(255, 255, 255); text-decoration-thickness: initial; text-decoration-style: initial; text-decoration-color: initial; float: none; display: inline !important;&quot;&gt;&amp;lt;&amp;lt;include&amp;gt;&amp;gt;&lt;/span&gt;" style="text;whiteSpace=wrap;html=1;fontSize=12;fontColor=#B3B3B3;" vertex="1" parent="1">
          <mxGeometry x="342.5" y="910" width="57.5" height="22.5" as="geometry" />
        </mxCell>
        <mxCell id="ghwwSmaMZXJ6ce2ccZRn-59" value="&lt;span style=&quot;font-family: Helvetica; font-size: 12px; font-style: normal; font-variant-ligatures: normal; font-variant-caps: normal; font-weight: 400; letter-spacing: normal; orphans: 2; text-align: center; text-indent: 0px; text-transform: none; widows: 2; word-spacing: 0px; -webkit-text-stroke-width: 0px; background-color: rgb(255, 255, 255); text-decoration-thickness: initial; text-decoration-style: initial; text-decoration-color: initial; float: none; display: inline !important;&quot;&gt;&amp;lt;&amp;lt;include&amp;gt;&amp;gt;&lt;/span&gt;" style="text;whiteSpace=wrap;html=1;fontSize=12;rotation=30;fontColor=#B3B3B3;" vertex="1" parent="1">
          <mxGeometry x="300" y="800" width="65" height="30" as="geometry" />
        </mxCell>
        <mxCell id="ghwwSmaMZXJ6ce2ccZRn-58" value="&lt;span style=&quot;font-family: Helvetica; font-size: 12px; font-style: normal; font-variant-ligatures: normal; font-variant-caps: normal; font-weight: 400; letter-spacing: normal; orphans: 2; text-align: center; text-indent: 0px; text-transform: none; widows: 2; word-spacing: 0px; -webkit-text-stroke-width: 0px; background-color: rgb(255, 255, 255); text-decoration-thickness: initial; text-decoration-style: initial; text-decoration-color: initial; float: none; display: inline !important;&quot;&gt;&amp;lt;&amp;lt;include&amp;gt;&amp;gt;&lt;/span&gt;" style="text;whiteSpace=wrap;html=1;fontSize=12;rotation=-55;fontColor=#B3B3B3;" vertex="1" parent="1">
          <mxGeometry x="395" y="730" width="65" height="30" as="geometry" />
        </mxCell>
        <mxCell id="ghwwSmaMZXJ6ce2ccZRn-61" value="" style="edgeStyle=none;rounded=0;orthogonalLoop=1;jettySize=auto;html=1;fontSize=15;endArrow=none;endFill=0;verticalAlign=bottom;dashed=1;endSize=8;strokeColor=#B3B3B3;" edge="1" parent="1" source="ghwwSmaMZXJ6ce2ccZRn-44" target="ghwwSmaMZXJ6ce2ccZRn-58">
          <mxGeometry relative="1" as="geometry">
            <mxPoint x="390.8024863700148" y="840.5119215941716" as="sourcePoint" />
            <mxPoint x="456.8389726668149" y="669.3758176613035" as="targetPoint" />
          </mxGeometry>
        </mxCell>
        <mxCell id="ghwwSmaMZXJ6ce2ccZRn-64" value="" style="edgeStyle=orthogonalEdgeStyle;rounded=0;orthogonalLoop=1;jettySize=auto;html=1;fontSize=15;endArrow=classic;endFill=1;verticalAlign=bottom;dashed=1;endSize=8;curved=1;exitX=0.5;exitY=0;exitDx=0;exitDy=0;fontColor=#B3B3B3;strokeColor=#B3B3B3;" edge="1" parent="1" source="ghwwSmaMZXJ6ce2ccZRn-10" target="ghwwSmaMZXJ6ce2ccZRn-7">
          <mxGeometry relative="1" as="geometry">
            <mxPoint x="234.2981572058709" y="1010.066041433136" as="sourcePoint" />
            <mxPoint x="268.5279848354685" y="634.0348284216682" as="targetPoint" />
            <Array as="points">
              <mxPoint x="170" y="1010" />
              <mxPoint x="170" y="590" />
              <mxPoint x="298" y="590" />
            </Array>
          </mxGeometry>
        </mxCell>
        <mxCell id="ghwwSmaMZXJ6ce2ccZRn-22" value="Modificar carta" style="ellipse;whiteSpace=wrap;html=1;fontSize=15;" vertex="1" parent="1">
          <mxGeometry x="195" y="642.5" width="130" height="50" as="geometry" />
        </mxCell>
        <mxCell id="ghwwSmaMZXJ6ce2ccZRn-46" value="Borrar producto" style="ellipse;whiteSpace=wrap;html=1;fontSize=15;aspect=fixed;" vertex="1" parent="1">
          <mxGeometry x="202.5" y="742.5" width="115" height="57.5" as="geometry" />
        </mxCell>
        <mxCell id="ghwwSmaMZXJ6ce2ccZRn-66" value="&lt;span style=&quot;font-family: Helvetica; font-size: 12px; font-style: normal; font-variant-ligatures: normal; font-variant-caps: normal; font-weight: 400; letter-spacing: normal; orphans: 2; text-align: center; text-indent: 0px; text-transform: none; widows: 2; word-spacing: 0px; -webkit-text-stroke-width: 0px; background-color: rgb(255, 255, 255); text-decoration-thickness: initial; text-decoration-style: initial; text-decoration-color: initial; float: none; display: inline !important;&quot;&gt;&amp;lt;&amp;lt;include&amp;gt;&amp;gt;&lt;/span&gt;" style="text;whiteSpace=wrap;html=1;fontSize=12;fontColor=#B3B3B3;" vertex="1" parent="1">
          <mxGeometry x="605" y="880" width="65" height="30" as="geometry" />
        </mxCell>
        <mxCell id="ghwwSmaMZXJ6ce2ccZRn-68" value="&lt;span style=&quot;font-family: Helvetica; font-size: 12px; font-style: normal; font-variant-ligatures: normal; font-variant-caps: normal; font-weight: 400; letter-spacing: normal; orphans: 2; text-align: center; text-indent: 0px; text-transform: none; widows: 2; word-spacing: 0px; -webkit-text-stroke-width: 0px; background-color: rgb(255, 255, 255); text-decoration-thickness: initial; text-decoration-style: initial; text-decoration-color: initial; float: none; display: inline !important;&quot;&gt;&amp;lt;&amp;lt;include&amp;gt;&amp;gt;&lt;/span&gt;" style="text;whiteSpace=wrap;html=1;fontSize=12;fontColor=#B3B3B3;" vertex="1" parent="1">
          <mxGeometry x="250" y="580" width="65" height="30" as="geometry" />
        </mxCell>
      </root>
    </mxGraphModel>
  </diagram>
</mxfile>
